<svg width="217" height="360" viewBox="0 0 217 360" fill="none" xmlns="http://www.w3.org/2000/svg">
<path d="M109.967 354.75H90.2848C90.2848 332.885 91.5073 316.629 83.2759 308.14C75.0445 299.652 48.2171 286.763 32.1796 268.291C4.7379 236.686 6.14117 210.893 6.14117 191.147H59.3676C41.8204 173.811 26.164 150.241 16.2124 126.736C7.43479 106.004 6.55079 58.2462 5.26257 35.273L69.0293 29.4761V5H109.967" stroke="black" stroke-width="10"/>
<path d="M109.967 354.75H126.714C126.714 332.885 125.492 316.629 133.723 308.14C141.954 299.652 168.782 286.763 184.819 268.291C212.261 236.686 210.858 210.893 210.858 191.147H157.631C175.178 173.811 190.835 150.241 200.786 126.736C209.564 106.004 210.448 58.2462 211.736 35.273L147.97 29.4761V5H109.967" stroke="black" stroke-width="10"/>
</svg>
